<svg width="22" height="20" viewBox="0 0 22 20" fill="none" xmlns="http://www.w3.org/2000/svg" class="transition-colors duration-200 w-[22px] h-[20px] group-hover:fill-[#A1A1A1]"><path d="M8.57907 8.55651C7.96021 8.25059 7.28055 7.88227 6.77278 7.44958C6.55616 8.09496 6.13246 8.76658 5.74354 9.33825C5.61324 9.53093 5.47991 9.72209 5.34143 9.92616C5.05497 10.3542 4.80014 10.8074 4.7991 11.1934C4.80096 11.3922 4.85272 11.5871 4.95143 11.7633C5.48838 12.7487 6.90364 12.8604 7.59774 11.9815C7.68051 11.8756 7.75075 11.7611 7.80513 11.641C7.7049 12.2824 7.44176 12.7693 6.95979 13.0836L7.04789 13.3854L8.58935 13.0063L8.59871 16.9748C8.60008 17.5568 9.11162 18.0296 9.74118 18.0309L13.2183 18.0376L5.35538 19.9709C4.87728 20.0884 4.38632 19.8398 4.23585 19.4125L4.22227 19.3707L0.0317465 5.01982C-0.100469 4.56697 0.192356 4.10148 0.685845 3.98009L8.56384 2.04308L8.57907 8.55651Z" fill="#767676"></path><path d="M7.19434 9.6434C7.2032 9.62932 7.23809 9.62079 7.25344 9.62892L7.33951 9.67338C7.43595 9.79695 7.7967 9.87417 8.20632 9.90022L8.20687 10.137C8.07263 10.2229 7.95009 10.3121 7.84073 10.4039C7.83156 10.4114 7.82237 10.419 7.81265 10.4273C7.78614 10.4502 7.75966 10.4733 7.7341 10.4967C7.72665 10.5045 7.7166 10.5122 7.70914 10.52C7.70346 10.5254 7.69646 10.5318 7.69152 10.5371C7.68827 10.5398 7.68438 10.5433 7.68271 10.5459C7.67564 10.5521 7.67012 10.5582 7.66381 10.5642C7.66253 10.5653 7.66126 10.5667 7.66069 10.5676C7.65364 10.5738 7.64753 10.5808 7.64197 10.5866C7.64087 10.5884 7.63888 10.5901 7.63756 10.5912C7.63067 10.5981 7.62335 10.606 7.61646 10.6129C7.60959 10.6198 7.60404 10.6259 7.59792 10.6326C7.59485 10.636 7.59086 10.6396 7.5893 10.6426C7.58513 10.6477 7.58072 10.6521 7.57645 10.6569C7.55387 10.6821 7.53195 10.7071 7.51258 10.7323C7.50588 10.7399 7.50072 10.7473 7.49478 10.7547C7.48828 10.763 7.48239 10.7709 7.47569 10.7785L7.42559 10.8564C7.41673 10.8705 7.38184 10.879 7.36649 10.8709L7.28023 10.8256L7.27877 10.8259C6.94912 10.6827 6.89266 10.6016 6.40058 10.5905L6.39893 10.5909L6.25596 10.5925C6.23014 10.5929 6.22548 10.5769 6.24806 10.5654L6.37268 10.5013L6.37433 10.5009C6.4043 10.4843 6.43358 10.4674 6.46334 10.4501C6.47777 10.4413 6.4915 10.433 6.50592 10.4243C6.52039 10.4155 6.53414 10.4068 6.5485 10.3977C6.57664 10.3804 6.60485 10.3628 6.63127 10.3452C6.65771 10.3275 6.68565 10.3092 6.71038 10.2913C6.97149 10.111 6.99482 9.9177 7.14424 9.72138L7.19434 9.6434Z" fill="#767676"></path><path d="M9.97216 0.849127C9.97216 0.380253 10.3865 7.02165e-05 10.8975 7.02203e-05L21.0748 0C21.5858 1.87221e-05 21.9999 0.380266 21.9999 0.849129L22 15.7061L21.9987 15.7498C21.9747 16.1839 21.5955 16.532 21.1224 16.554L21.0748 16.5551L10.8975 16.555C10.3865 16.555 9.97221 16.1749 9.97221 15.706L9.97216 0.849127ZM11.0998 15.5203L20.8722 15.5203L20.8723 1.03467L11.0997 1.03479L11.0998 15.5203Z" fill="#767676"></path><path fill-rule="evenodd" clip-rule="evenodd" d="M16.0168 5.38937C16.4081 5.96132 17.0066 6.50952 17.5436 6.96935C17.7238 7.12339 17.9065 7.2775 18.0978 7.44173C18.4965 7.78829 18.8705 8.1654 18.9791 8.53687C19.0334 8.72941 19.0384 8.92993 18.9927 9.1236C18.7532 10.203 17.4178 10.647 16.4982 9.96293C16.3883 9.8814 16.2884 9.78739 16.202 9.68321C16.4797 10.2789 16.871 10.6867 17.4252 10.8759V11.1884H14.6084V10.8759C15.1626 10.6867 15.5539 10.2789 15.8316 9.68321C15.7452 9.78627 15.6452 9.88026 15.5354 9.96293C14.617 10.647 13.2816 10.203 13.0409 9.1236C12.9952 8.92993 13.0001 8.72941 13.0544 8.53687C13.1643 8.16427 13.5383 7.78715 13.9357 7.44173C14.1271 7.27751 14.3096 7.12451 14.4898 6.96935C15.0268 6.50951 15.6255 5.96135 16.0168 5.38937ZM16.048 7.65325C16.0355 7.64175 15.9994 7.64175 15.9869 7.65325L15.9164 7.71674C15.7167 7.87089 15.4582 8.00745 15.1551 8.11956C15.1261 8.13106 15.0939 8.14196 15.0633 8.15274C15.0328 8.16351 15.0007 8.17384 14.9686 8.1839C14.9522 8.18929 14.9365 8.19436 14.92 8.19939C14.9036 8.20441 14.888 8.20918 14.8716 8.21421C14.8379 8.2239 14.805 8.23319 14.7714 8.24216H14.7697L14.6311 8.2745C14.6061 8.28025 14.6061 8.29687 14.6311 8.30262L14.7697 8.33496H14.7714C15.2436 8.46253 15.6384 8.64353 15.9164 8.86021H15.9179L15.9883 8.92454C16.0009 8.93604 16.0369 8.93604 16.0495 8.92454L16.1199 8.86105C16.1285 8.8553 16.1365 8.84917 16.1451 8.8427C16.1529 8.83695 16.1599 8.8311 16.1686 8.82535C16.1944 8.80561 16.2226 8.78661 16.2515 8.76759C16.257 8.764 16.2626 8.76076 16.268 8.75681C16.2704 8.7543 16.2751 8.75175 16.279 8.74923C16.2869 8.74422 16.2939 8.7396 16.3025 8.73458C16.3111 8.72955 16.3205 8.72378 16.3291 8.71875C16.3307 8.71803 16.3331 8.71681 16.3347 8.71538C16.3417 8.71108 16.3496 8.7057 16.3581 8.70141C16.3589 8.70069 16.3605 8.69958 16.362 8.69888C16.3698 8.69457 16.3769 8.68988 16.3855 8.68558C16.3879 8.68343 16.3926 8.68096 16.3965 8.67918C16.4028 8.67523 16.4113 8.67083 16.4183 8.66688C16.4277 8.66114 16.4396 8.65613 16.449 8.65038C16.4803 8.63387 16.5123 8.61767 16.5444 8.60188C16.5562 8.59613 16.5672 8.59108 16.5782 8.58605C16.7803 8.48975 17.0105 8.40643 17.2635 8.33815C17.2635 8.33744 17.2666 8.33664 17.2666 8.33664L17.4028 8.30464L17.4037 8.30431C17.4271 8.29854 17.4271 8.28204 17.4021 8.2745L17.2635 8.24216C16.7912 8.11459 16.3965 7.93343 16.1185 7.71674L16.048 7.65325Z" fill="#767676"></path></svg>